<svg xmlns="http://www.w3.org/2000/svg" xmlns:xlink="http://www.w3.org/1999/xlink" id="Layer_1" x="0" y="0" enable-background="new 0 0 1781 2466.8" version="1.1" viewBox="0 0 1781 2466.8" xml:space="preserve"><style type="text/css">.st0{fill:#ffa000}.st1{fill:#f57f17}.st2{fill:#ffca28}</style><path d="M1169.4,891l-246.7,229.7l-229-462.1L812,392.9c29.9-53,78.8-53.7,108.7,0L1169.4,891z" class="st0"/><path d="M922.8,1120.6L0,1978.9L693.8,658.6L922.8,1120.6z" class="st1"/><path d="M1439.9,539.7c44.2-42.1,89.7-27.9,101.2,31.9L1781,1967.3L985.3,2445c-27.9,15.6-101.9,21.7-101.9,21.7	s-67.3-8.2-93.1-22.4L0,1978.9L1439.9,539.7z" class="st2"/><path d="M693.8,658.6L0,1978.9L309.2,49.1c11.6-59.8,45.5-65.9,76.1-12.9L693.8,658.6z" class="st0"/></svg>